<svg width="16" height="16" viewBox="0 0 16 16" fill="none" xmlns="http://www.w3.org/2000/svg">
<path d="M13.5 7V4" stroke="black" stroke-linecap="round" stroke-linejoin="round"/>
<path d="M15 5.5H12" stroke="black" stroke-linecap="round" stroke-linejoin="round"/>
<path d="M10.5 1.5V3.5" stroke="black" stroke-linecap="round" stroke-linejoin="round"/>
<path d="M11.5 2.5H9.5" stroke="black" stroke-linecap="round" stroke-linejoin="round"/>
<path d="M13.5438 9.53755C12.5622 9.81283 11.5249 9.82185 10.5386 9.56369C9.55229 9.30553 8.65248 8.78949 7.93156 8.06857C7.21064 7.34765 6.6946 6.44783 6.43644 5.46152C6.17828 4.47522 6.1873 3.43797 6.46258 2.4563C5.49474 2.72568 4.61437 3.24394 3.90917 3.95944C3.20396 4.67495 2.69852 5.56274 2.44319 6.53438C2.18787 7.50602 2.19157 8.52759 2.45393 9.49736C2.71629 10.4671 3.22815 11.3512 3.93853 12.0616C4.64891 12.772 5.53301 13.2838 6.50277 13.5462C7.47253 13.8086 8.49411 13.8123 9.46575 13.5569C10.4374 13.3016 11.3252 12.7962 12.0407 12.091C12.7562 11.3858 13.2744 10.5054 13.5438 9.53755Z" stroke="black" stroke-linecap="round" stroke-linejoin="round"/>
</svg>
